<?xml version="1.0" standalone="no"?>
<!DOCTYPE svg PUBLIC "-//W3C//DTD SVG 20010904//EN"
 "http://www.w3.org/TR/2001/REC-SVG-20010904/DTD/svg10.dtd">
<svg version="1.0" xmlns="http://www.w3.org/2000/svg"
 width="500.000000pt" height="500.000000pt" viewBox="0 0 500.000000 500.000000"
 preserveAspectRatio="xMidYMid meet">

<g transform="translate(0.000000,500.000000) scale(0.100000,-0.100000)"
fill="#000000" stroke="none">
<path d="M2963 3404 c-256 -243 -343 -331 -343 -348 0 -16 54 -80 180 -213 99
-105 186 -193 193 -196 7 -3 22 0 33 7 42 23 694 651 694 667 0 28 -368 409
-394 409 -14 -1 -137 -110 -363 -326z"/>
<path d="M3165 2069 c-1127 -1067 -1095 -1036 -1095 -1060 0 -26 356 -403 384
-407 16 -2 244 208 936 864 1155 1094 1092 1032 1088 1055 -4 26 -367 409
-387 409 -9 0 -426 -388 -926 -861z"/>
</g>
</svg>
